<svg width="1950" height="900" viewBox="0 0 1950 900" fill="none" xmlns="http://www.w3.org/2000/svg">
<g clip-path="url(#clip0_133_2989)">
<path d="M-2.86063 485.973C-2.86063 205.268 -2.85989 205.268 -189 205.268C-55.5594 205.268 -17.7804 205.268 -7.08463 101.85C-2.86063 61.0081 -2.86063 -200.52 -2.86063 -279.997C-2.86063 -200.52 -2.86063 61.0081 1.36337 101.85C8.09656 166.954 25.5627 191.073 70.8703 200.009C97.5345 205.268 1870.06 205.268 1919.5 205.268C1870.06 205.268 97.5345 205.268 70.8703 210.527C-2.86063 225.068 -2.86063 279.82 -2.86063 485.973Z" fill="#EB8EF3"/>
<path d="M70.8703 200.009C97.5345 205.268 1870.06 205.268 1919.5 205.268C1870.06 205.268 97.5345 205.268 70.8703 210.527M70.8703 200.009V210.527M70.8703 200.009C25.5627 191.073 8.09656 166.954 1.36337 101.85M70.8703 210.527C-2.86103 225.069 -2.86063 279.821 -2.86063 485.973C-2.86063 205.268 -2.85989 205.268 -189 205.268C-55.5594 205.268 -17.7804 205.268 -7.08463 101.85M-7.08463 101.85C-2.86056 61.0076 -2.86063 -200.527 -2.86063 -280C-2.86063 -200.527 -2.86069 61.0076 1.36337 101.85M-7.08463 101.85H1.36337" stroke="#EB8EF3" stroke-width="0.954625"/>
<path d="M-2.86063 1004C-2.86063 723.295 -2.85989 723.295 -189 723.295C-55.5594 723.295 -17.7804 723.295 -7.08463 619.878C-2.86063 579.035 -2.86063 317.507 -2.86063 238.031C-2.86063 317.507 -2.86063 579.035 1.36337 619.878C8.09656 684.981 25.5627 709.101 70.8703 718.036C97.5345 723.295 1867.06 723.295 1916.5 723.295C1867.06 723.295 97.5345 723.295 70.8703 728.554C-2.86063 743.096 -2.86063 797.848 -2.86063 1004Z" fill="#EB8EF3"/>
<path d="M70.8703 718.036C97.5345 723.295 1867.06 723.295 1916.5 723.295C1867.06 723.295 97.5345 723.295 70.8703 728.554M70.8703 718.036V728.554M70.8703 718.036C25.5627 709.101 8.09656 684.981 1.36337 619.878M70.8703 728.554C-2.86103 743.096 -2.86063 797.848 -2.86063 1004C-2.86063 723.295 -2.85989 723.295 -189 723.295C-55.5594 723.295 -17.7804 723.295 -7.08463 619.878M-7.08463 619.878C-2.86056 579.035 -2.86063 317.5 -2.86063 238.027C-2.86063 317.5 -2.86069 579.035 1.36337 619.878M-7.08463 619.878H1.36337" stroke="#EB8EF3" stroke-width="0.954625"/>
<path d="M1951.64 485.973C1951.64 205.268 1951.64 205.268 2137.78 205.268C2004.34 205.268 1966.56 205.268 1955.86 101.85C1951.64 61.0081 1951.64 -200.52 1951.64 -279.997C1951.64 -200.52 1951.64 61.0081 1947.41 101.85C1940.68 166.954 1923.21 191.073 1877.91 200.009C1851.24 205.268 58.9373 205.268 9.5 205.268C58.9373 205.268 1851.24 205.268 1877.91 210.527C1951.64 225.068 1951.64 279.82 1951.64 485.973Z" fill="#EB8EF3"/>
<path d="M1877.91 200.009C1851.24 205.268 58.9372 205.268 9.5 205.268C58.9372 205.268 1851.24 205.268 1877.91 210.527M1877.91 200.009V210.527M1877.91 200.009C1923.21 191.073 1940.68 166.954 1947.41 101.85M1877.91 210.527C1951.64 225.069 1951.64 279.821 1951.64 485.973C1951.64 205.268 1951.64 205.268 2137.78 205.268C2004.34 205.268 1966.56 205.268 1955.86 101.85M1955.86 101.85C1951.64 61.0076 1951.64 -200.527 1951.64 -280C1951.64 -200.527 1951.64 61.0076 1947.41 101.85M1955.86 101.85H1947.41" stroke="#EB8EF3" stroke-width="0.954625"/>
<path d="M1951.64 1004C1951.64 723.295 1951.64 723.295 2137.78 723.295C2004.34 723.295 1966.56 723.295 1955.86 619.878C1951.64 579.035 1951.64 317.507 1951.64 238.031C1951.64 317.507 1951.64 579.035 1947.41 619.878C1940.68 684.981 1923.21 709.101 1877.91 718.036C1851.24 723.295 89.4373 723.295 40 723.295C89.4373 723.295 1851.24 723.295 1877.91 728.554C1951.64 743.096 1951.64 797.848 1951.64 1004Z" fill="#EB8EF3"/>
<path d="M1877.91 718.036C1851.24 723.295 89.4372 723.295 40 723.295C89.4372 723.295 1851.24 723.295 1877.91 728.554M1877.91 718.036V728.554M1877.91 718.036C1923.21 709.101 1940.68 684.981 1947.41 619.878M1877.91 728.554C1951.64 743.096 1951.64 797.848 1951.64 1004C1951.64 723.295 1951.64 723.295 2137.78 723.295C2004.34 723.295 1966.56 723.295 1955.86 619.878M1955.86 619.878C1951.64 579.035 1951.64 317.5 1951.64 238.027C1951.64 317.5 1951.64 579.035 1947.41 619.878M1955.86 619.878H1947.41" stroke="#EB8EF3" stroke-width="0.954625"/>
</g>
<rect x="0.5" y="0.5" width="1949" height="899" stroke="#4200FF"/>
<defs>
<clipPath id="clip0_133_2989">
<rect width="1950" height="900" fill="white"/>
</clipPath>
</defs>
</svg>
