<svg width="33" height="33" viewBox="0 0 33 33" fill="none" xmlns="http://www.w3.org/2000/svg">
<path d="M2.21497 5.14273L14.6255 17.5533L17.5582 14.6207L5.1476 2.2101C3.6742 0.736701 2.45581 0.481688 1.49243 1.44507C0.500723 2.43678 0.741568 3.66933 2.21497 5.14273Z" fill="#4200FF"/>
<path d="M27.0171 29.9448L14.6065 17.5343L17.5392 14.6017L29.9497 27.0122C31.4231 28.4856 31.6781 29.704 30.7147 30.6674C29.723 31.6591 28.4905 31.4182 27.0171 29.9448Z" fill="#4200FF"/>
<path d="M29.9452 5.14273L17.5346 17.5533L14.602 14.6207L27.0126 2.2101C28.486 0.736701 29.7043 0.481688 30.6677 1.44507C31.6594 2.43678 31.4186 3.66933 29.9452 5.14273Z" fill="#4200FF"/>
<path d="M5.14308 29.9448L17.5536 17.5343L14.621 14.6017L2.21044 27.0122C0.737043 28.4856 0.482031 29.704 1.44541 30.6674C2.43712 31.6591 3.66968 31.4182 5.14308 29.9448Z" fill="#4200FF"/>
</svg>
