<svg width="20" height="20" viewBox="0 0 20 20" fill="none" xmlns="http://www.w3.org/2000/svg">
<path d="M18.3045 3.19822L10.5853 10.9174L8.76124 9.09338L16.4805 1.37416C17.3969 0.457719 18.1547 0.299104 18.7539 0.898314C19.3708 1.51515 19.221 2.28178 18.3045 3.19822Z" fill="white"/>
<path d="M2.87791 18.6248L10.5971 10.9056L8.77307 9.08155L1.05384 16.8008C0.137407 17.7172 -0.0212084 18.475 0.578001 19.0743C1.19483 19.6911 1.96147 19.5413 2.87791 18.6248Z" fill="white"/>
<path d="M1.05611 3.19822L8.77533 10.9174L10.5994 9.09338L2.88017 1.37416C1.96373 0.457719 1.20591 0.299104 0.6067 0.898314C-0.0101325 1.51515 0.139671 2.28178 1.05611 3.19822Z" fill="white"/>
<path d="M16.4827 18.6248L8.76351 10.9056L10.5876 9.08155L18.3068 16.8008C19.2232 17.7172 19.3818 18.475 18.7826 19.0743C18.1658 19.6911 17.3992 19.5413 16.4827 18.6248Z" fill="white"/>
</svg>
