<svg width="1950" height="900" viewBox="0 0 1950 900" fill="none" xmlns="http://www.w3.org/2000/svg">
<g clip-path="url(#clip0_135_3474)">
<path fill-rule="evenodd" clip-rule="evenodd" d="M1949.05 112.634C1948.73 144.311 1947.01 176.484 1944.86 191.134C1937.87 238.635 1923.11 260.987 1891.25 271C1889.37 271.59 1887.43 272.138 1885.43 272.645L1875.59 275.14L1846.5 275.483L1793.98 276.104C1607.46 278.307 979.813 279.429 602.11 278.234C399.856 277.594 198.109 276.638 153.782 276.11L73.1875 275.148L63.4095 272.668C58.0315 271.304 49.7835 268.325 45.0805 266.048C17.5495 252.723 3.99151 220.808 0.933515 162.134C0.517515 154.15 0.161515 204.709 0.141515 274.634C0.107515 388.585 0.245515 400.196 1.48451 387.634C7.49251 326.706 21.8675 301.369 56.8755 290C63.9535 287.702 69.4355 286.696 78.3755 286.054C138.54 281.734 1590.3 280.954 1828.38 285.113C1878.17 285.983 1878.41 285.997 1887.38 288.614C1902.31 292.973 1910.27 297.431 1919.48 306.58C1926.15 313.213 1928.39 316.31 1932.21 324.134C1937.73 335.437 1940.96 346.325 1943.79 363.193C1946 376.318 1948.74 404.507 1949.04 417.134C1949.17 422.391 1949.43 420.447 1949.93 410.634C1950.83 392.754 1950.83 164.636 1949.93 123.634C1949.3 94.6827 1949.24 93.9557 1949.05 112.634ZM0.360515 274.634C0.360515 344.484 0.479515 372.912 0.625515 337.806C0.771515 302.701 0.771515 245.551 0.625515 210.806C0.479515 176.062 0.360515 204.784 0.360515 274.634ZM1949.02 630.634C1948.75 661.913 1947.03 694.373 1944.86 709.134C1937.46 759.444 1921.35 781.534 1885.41 790.649L1875.56 793.15L1798.47 794.106C1618.71 796.335 985.522 797.468 601.602 796.248C395.777 795.594 192.547 794.631 149.978 794.109L72.5785 793.16L62.9775 790.607C57.6965 789.204 49.5505 786.214 44.8755 783.963C17.6045 770.833 3.98251 738.645 0.933515 680.134C0.501515 671.838 0.113515 715.804 0.0265148 782.884C-0.125485 901.135 0.298515 914.759 3.35451 889.634C4.46351 880.523 8.03452 863.904 10.5195 856.29C19.5195 828.72 34.0165 814.559 61.3755 806.614L70.3755 804L124.876 803.089C349.267 799.34 1602.68 799.34 1824.38 803.089L1878.38 804.003L1887.38 806.622C1922.19 816.753 1937.73 838.581 1944.72 887.171C1946.31 898.195 1946.74 899.634 1948.45 899.634C1950.34 899.634 1950.38 897.59 1950.61 793.634C1950.74 735.334 1950.47 670.309 1950.02 649.134C1949.38 619.418 1949.16 615.197 1949.02 630.634ZM0.359515 783.134C0.359515 847.759 0.478515 874.197 0.625515 841.884C0.771515 809.572 0.771515 756.697 0.625515 724.384C0.478515 692.072 0.359515 718.509 0.359515 783.134Z" fill="#EB8EF3"/>
<path d="M1875.59 275.14L1885.43 272.645C1887.43 272.138 1889.37 271.59 1891.25 271C1880.25 274.2 1856.83 275.322 1846.5 275.483L1875.59 275.14Z" fill="#EB8EF3"/>
</g>
<defs>
<clipPath id="clip0_135_3474">
<rect width="1950" height="900" fill="white"/>
</clipPath>
</defs>
</svg>
