<svg width="414" height="729" viewBox="0 0 414 729" fill="none" xmlns="http://www.w3.org/2000/svg">
<g clip-path="url(#clip0_135_3433)">
<path d="M-3.46706 315.654C-3.46706 138.41 -3.46659 138.41 -121 138.41C-36.7423 138.41 -12.8878 138.41 -6.13419 73.1095C-3.46706 47.3209 -3.46706 -117.814 -3.46706 -167.998V-167.998C-3.46706 -117.815 -3.46706 47.3208 -0.799911 73.1095C3.45158 114.217 14.4801 129.447 43.0884 135.089C59.9249 138.41 561.784 138.41 593 138.41C561.784 138.41 59.9249 138.41 43.0884 141.731C-3.46706 150.913 -3.46706 185.484 -3.46706 315.654Z" fill="#EB8EF3"/>
<path d="M43.0884 135.089C59.9249 138.41 561.784 138.41 593 138.41C561.784 138.41 59.9249 138.41 43.0884 141.731M43.0884 135.089V141.731M43.0884 135.089C14.4801 129.447 3.45159 114.217 -0.799914 73.1095M43.0884 141.731C-3.46731 150.913 -3.46706 185.485 -3.46706 315.654C-3.46706 138.41 -3.46659 138.41 -121 138.41C-36.7423 138.41 -12.8878 138.41 -6.13419 73.1095M-6.13419 73.1095C-3.46702 47.3205 -3.46706 -117.819 -3.46706 -168C-3.46706 -117.819 -3.46709 47.3205 -0.799914 73.1095M-6.13419 73.1095H-0.799914" stroke="#EB8EF3" stroke-width="0.602774"/>
<path d="M-3.46706 843.654C-3.46706 666.41 -3.46659 666.41 -121 666.41C-36.7423 666.41 -12.8878 666.41 -6.13419 601.11C-3.46706 575.321 -3.46706 410.186 -3.46706 360.002V360.002C-3.46706 410.185 -3.46706 575.321 -0.799911 601.11C3.45158 642.217 14.4801 657.447 43.0884 663.089C59.9249 666.41 561.784 666.41 593 666.41C561.784 666.41 59.9249 666.41 43.0884 669.731C-3.46706 678.913 -3.46706 713.484 -3.46706 843.654Z" fill="#EB8EF3"/>
<path d="M43.0884 663.089C59.9249 666.41 561.784 666.41 593 666.41C561.784 666.41 59.9249 666.41 43.0884 669.731M43.0884 663.089V669.731M43.0884 663.089C14.4801 657.447 3.45159 642.217 -0.799914 601.11M43.0884 669.731C-3.46731 678.913 -3.46706 713.485 -3.46706 843.654C-3.46706 666.41 -3.46659 666.41 -121 666.41C-36.7423 666.41 -12.8878 666.41 -6.13419 601.11M-6.13419 601.11C-3.46702 575.321 -3.46706 410.181 -3.46706 360C-3.46706 410.181 -3.46709 575.321 -0.799914 601.11M-6.13419 601.11H-0.799914" stroke="#EB8EF3" stroke-width="0.602774"/>
<path d="M418.467 315.654C418.467 138.41 418.467 138.41 536 138.41C451.742 138.41 427.888 138.41 421.134 73.1095C418.467 47.3209 418.467 -117.814 418.467 -167.998V-167.998C418.467 -117.815 418.467 47.3208 415.8 73.1095C411.548 114.217 400.52 129.447 371.912 135.089C355.075 138.41 -146.784 138.41 -178 138.41C-146.784 138.41 355.075 138.41 371.912 141.731C418.467 150.913 418.467 185.484 418.467 315.654Z" fill="#EB8EF3"/>
<path d="M371.912 135.089C355.075 138.41 -146.784 138.41 -178 138.41C-146.784 138.41 355.075 138.41 371.912 141.731M371.912 135.089V141.731M371.912 135.089C400.52 129.447 411.548 114.217 415.8 73.1095M371.912 141.731C418.467 150.913 418.467 185.485 418.467 315.654C418.467 138.41 418.467 138.41 536 138.41C451.742 138.41 427.888 138.41 421.134 73.1095M421.134 73.1095C418.467 47.3205 418.467 -117.819 418.467 -168C418.467 -117.819 418.467 47.3205 415.8 73.1095M421.134 73.1095H415.8" stroke="#EB8EF3" stroke-width="0.602774"/>
<path d="M418.467 843.654C418.467 666.41 418.467 666.41 536 666.41C451.742 666.41 427.888 666.41 421.134 601.11C418.467 575.321 418.467 410.186 418.467 360.002V360.002C418.467 410.185 418.467 575.321 415.8 601.11C411.548 642.217 400.52 657.447 371.912 663.089C355.075 666.41 -146.784 666.41 -178 666.41C-146.784 666.41 355.075 666.41 371.912 669.731C418.467 678.913 418.467 713.484 418.467 843.654Z" fill="#EB8EF3"/>
<path d="M371.912 663.089C355.075 666.41 -146.784 666.41 -178 666.41C-146.784 666.41 355.075 666.41 371.912 669.731M371.912 663.089V669.731M371.912 663.089C400.52 657.447 411.548 642.217 415.8 601.11M371.912 669.731C418.467 678.913 418.467 713.485 418.467 843.654C418.467 666.41 418.467 666.41 536 666.41C451.742 666.41 427.888 666.41 421.134 601.11M421.134 601.11C418.467 575.321 418.467 410.181 418.467 360C418.467 410.181 418.467 575.321 415.8 601.11M421.134 601.11H415.8" stroke="#EB8EF3" stroke-width="0.602774"/>
</g>
<defs>
<clipPath id="clip0_135_3433">
<rect width="414" height="728.625" fill="white"/>
</clipPath>
</defs>
</svg>
