<svg width="1390" height="792" viewBox="0 0 1390 792" fill="none" xmlns="http://www.w3.org/2000/svg">
<g clip-path="url(#clip0_130_2790)">
<path d="M1394.91 485.973C1394.91 205.268 1394.91 205.268 1581.05 205.268C1447.61 205.268 1409.83 205.268 1399.13 101.85C1394.91 61.0081 1394.91 -200.52 1394.91 -279.997C1394.91 -200.52 1394.91 61.0081 1390.68 101.85C1383.95 166.954 1366.48 191.073 1321.18 200.009C1294.51 205.268 499.708 205.268 450.27 205.268C499.708 205.268 1294.51 205.268 1321.18 210.527C1394.91 225.068 1394.91 279.82 1394.91 485.973Z" fill="#EB8EF3"/>
<path d="M1321.18 200.009C1294.51 205.268 499.707 205.268 450.27 205.268C499.707 205.268 1294.51 205.268 1321.18 210.527M1321.18 200.009V210.527M1321.18 200.009C1366.48 191.073 1383.95 166.954 1390.68 101.85M1321.18 210.527C1394.91 225.069 1394.91 279.821 1394.91 485.973C1394.91 205.268 1394.91 205.268 1581.05 205.268C1447.61 205.268 1409.83 205.268 1399.13 101.85M1399.13 101.85C1394.91 61.0076 1394.91 -200.527 1394.91 -280C1394.91 -200.527 1394.91 61.0076 1390.68 101.85M1399.13 101.85H1390.68" stroke="#EB8EF3" stroke-width="0.954625"/>
<path d="M1394.91 1004C1394.91 723.295 1394.91 723.295 1581.05 723.295C1447.61 723.295 1409.83 723.295 1399.13 619.878C1394.91 579.035 1394.91 317.507 1394.91 238.031C1394.91 317.507 1394.91 579.035 1390.68 619.878C1383.95 684.981 1366.48 709.101 1321.18 718.036C1294.51 723.295 499.708 723.295 450.27 723.295C499.708 723.295 1294.51 723.295 1321.18 728.554C1394.91 743.096 1394.91 797.848 1394.91 1004Z" fill="#EB8EF3"/>
<path d="M1321.18 718.036C1294.51 723.295 499.707 723.295 450.27 723.295C499.707 723.295 1294.51 723.295 1321.18 728.554M1321.18 718.036V728.554M1321.18 718.036C1366.48 709.101 1383.95 684.981 1390.68 619.878M1321.18 728.554C1394.91 743.096 1394.91 797.848 1394.91 1004C1394.91 723.295 1394.91 723.295 1581.05 723.295C1447.61 723.295 1409.83 723.295 1399.13 619.878M1399.13 619.878C1394.91 579.035 1394.91 317.5 1394.91 238.027C1394.91 317.5 1394.91 579.035 1390.68 619.878M1399.13 619.878H1390.68" stroke="#EB8EF3" stroke-width="0.954625"/>
<path d="M-5.86063 485.973C-5.86063 205.268 -5.85989 205.268 -192 205.268C-58.5594 205.268 -20.7804 205.268 -10.0846 101.85C-5.86063 61.0081 -5.86063 -200.52 -5.86063 -279.997C-5.86063 -200.52 -5.86063 61.0081 -1.63663 101.85C5.09657 166.954 22.5627 191.073 67.8703 200.009C94.5345 205.268 889.339 205.268 938.777 205.268C889.339 205.268 94.5345 205.268 67.8703 210.527C-5.86063 225.068 -5.86063 279.82 -5.86063 485.973Z" fill="#EB8EF3"/>
<path d="M67.8703 200.009C94.5345 205.268 889.339 205.268 938.777 205.268C889.339 205.268 94.5345 205.268 67.8703 210.527M67.8703 200.009V210.527M67.8703 200.009C22.5627 191.073 5.09657 166.954 -1.63662 101.85M67.8703 210.527C-5.86102 225.069 -5.86063 279.821 -5.86063 485.973C-5.86063 205.268 -5.85989 205.268 -192 205.268C-58.5594 205.268 -20.7804 205.268 -10.0846 101.85M-10.0846 101.85C-5.86057 61.0076 -5.86063 -200.527 -5.86063 -280C-5.86063 -200.527 -5.86068 61.0076 -1.63662 101.85M-10.0846 101.85H-1.63662" stroke="#EB8EF3" stroke-width="0.954625"/>
<path d="M-5.86063 1004C-5.86063 723.295 -5.85989 723.295 -192 723.295C-58.5594 723.295 -20.7804 723.295 -10.0846 619.878C-5.86063 579.035 -5.86063 317.507 -5.86063 238.031C-5.86063 317.507 -5.86063 579.035 -1.63663 619.878C5.09657 684.981 22.5627 709.101 67.8703 718.036C94.5345 723.295 889.339 723.295 938.777 723.295C889.339 723.295 94.5345 723.295 67.8703 728.554C-5.86063 743.096 -5.86063 797.848 -5.86063 1004Z" fill="#EB8EF3"/>
<path d="M67.8703 718.036C94.5345 723.295 889.339 723.295 938.777 723.295C889.339 723.295 94.5345 723.295 67.8703 728.554M67.8703 718.036V728.554M67.8703 718.036C22.5627 709.101 5.09657 684.981 -1.63662 619.878M67.8703 728.554C-5.86102 743.096 -5.86063 797.848 -5.86063 1004C-5.86063 723.295 -5.85989 723.295 -192 723.295C-58.5594 723.295 -20.7804 723.295 -10.0846 619.878M-10.0846 619.878C-5.86057 579.035 -5.86063 317.5 -5.86063 238.027C-5.86063 317.5 -5.86068 579.035 -1.63662 619.878M-10.0846 619.878H-1.63662" stroke="#EB8EF3" stroke-width="0.954625"/>
</g>
<defs>
<clipPath id="clip0_130_2790">
<rect width="1390" height="792" fill="white"/>
</clipPath>
</defs>
</svg>
