<svg width="1004" height="1084" viewBox="0 0 1004 1084" fill="none" xmlns="http://www.w3.org/2000/svg">
<g clip-path="url(#clip0_135_3171)">
<path d="M1001.37 1309.37C1001.37 973.607 1001.37 973.607 1224.02 973.607C1064.41 973.607 1019.22 973.607 1006.42 849.904C1001.37 801.051 1001.37 488.223 1001.37 393.157V393.156C1001.37 488.221 1001.37 801.05 996.32 849.904C988.266 927.778 967.374 956.628 913.179 967.317C881.284 973.607 -69.4244 973.607 -128.559 973.607C-69.4244 973.607 881.284 973.607 913.179 979.898C1001.37 997.292 1001.37 1062.78 1001.37 1309.37Z" fill="#EB8EF3"/>
<path d="M913.179 967.317C881.284 973.607 -69.4245 973.607 -128.559 973.607C-69.4245 973.607 881.284 973.607 913.179 979.898M913.179 967.317V979.898M913.179 967.317C967.374 956.628 988.266 927.778 996.32 849.904M913.179 979.898C1001.37 997.292 1001.37 1062.78 1001.37 1309.37C1001.37 973.607 1001.37 973.607 1224.02 973.607C1064.41 973.607 1019.22 973.607 1006.42 849.904M1006.42 849.904C1001.37 801.05 1001.37 488.214 1001.37 393.152C1001.37 488.214 1001.37 801.05 996.32 849.904M1006.42 849.904H996.32" stroke="#EB8EF3" stroke-width="2.1614"/>
<path d="M3.07312 1309.37C3.07312 973.603 3.07401 973.603 -219.578 973.603C-59.9626 973.603 -14.7732 973.603 -1.97942 849.9C3.07312 801.047 3.07312 488.219 3.07312 393.153V393.152C3.07312 488.217 3.07312 801.046 8.12569 849.9C16.1796 927.774 37.0717 956.624 91.2666 967.313C123.161 973.603 1073.87 973.603 1133 973.603C1073.87 973.603 123.161 973.603 91.2666 979.894C3.07312 997.288 3.07312 1062.78 3.07312 1309.37Z" fill="#EB8EF3"/>
<path d="M91.2666 967.313C123.161 973.603 1073.87 973.603 1133 973.603C1073.87 973.603 123.161 973.603 91.2666 979.894M91.2666 967.313V979.894M91.2666 967.313C37.0718 956.624 16.1796 927.774 8.12569 849.9M91.2666 979.894C3.07266 997.288 3.07313 1062.78 3.07313 1309.37C3.07313 973.603 3.07401 973.603 -219.578 973.603C-59.9626 973.603 -14.7732 973.603 -1.97942 849.9M-1.97942 849.9C3.0732 801.046 3.07313 488.21 3.07313 393.148C3.07313 488.21 3.07307 801.046 8.12569 849.9M-1.97942 849.9H8.12569" stroke="#EB8EF3" stroke-width="2.1614"/>
<path d="M2.6239 559.222C2.6239 223.455 2.62479 223.455 -220.027 223.455C-60.4119 223.455 -15.2224 223.455 -2.42863 99.7515C2.6239 50.8982 2.6239 -261.929 2.6239 -356.996V-356.997C2.6239 -261.931 2.6239 50.898 7.67647 99.7515C15.7304 177.625 36.6225 206.476 90.8174 217.165C122.712 223.455 1073.42 223.455 1132.56 223.455C1073.42 223.455 122.712 223.455 90.8174 229.745C2.6239 247.14 2.6239 312.631 2.6239 559.222Z" fill="#EB8EF3"/>
<path d="M90.8174 217.165C122.712 223.455 1073.42 223.455 1132.56 223.455C1073.42 223.455 122.712 223.455 90.8174 229.745M90.8174 217.165V229.745M90.8174 217.165C36.6225 206.476 15.7304 177.625 7.67647 99.7515M90.8174 229.745C2.62344 247.14 2.62391 312.632 2.62391 559.222C2.62391 223.455 2.62479 223.455 -220.027 223.455C-60.4119 223.455 -15.2224 223.455 -2.42864 99.7515M-2.42864 99.7515C2.62398 50.8975 2.62391 -261.939 2.62391 -357C2.62391 -261.939 2.62385 50.8975 7.67647 99.7515M-2.42864 99.7515H7.67647" stroke="#EB8EF3" stroke-width="2.1614"/>
<path d="M1000.93 559.222C1000.93 223.455 1000.93 223.455 1223.59 223.455C1063.97 223.455 1018.78 223.455 1005.99 99.7515C1000.93 50.8982 1000.93 -261.929 1000.93 -356.996V-356.997C1000.93 -261.931 1000.93 50.898 995.882 99.7515C987.828 177.625 966.936 206.476 912.741 217.165C880.847 223.455 -69.8619 223.455 -128.996 223.455C-69.8619 223.455 880.847 223.455 912.741 229.745C1000.93 247.14 1000.93 312.631 1000.93 559.222Z" fill="#EB8EF3"/>
<path d="M912.741 217.165C880.847 223.455 -69.862 223.455 -128.996 223.455C-69.862 223.455 880.847 223.455 912.741 229.745M912.741 217.165V229.745M912.741 217.165C966.936 206.476 987.828 177.625 995.882 99.7515M912.741 229.745C1000.94 247.14 1000.93 312.632 1000.93 559.222C1000.93 223.455 1000.93 223.455 1223.59 223.455C1063.97 223.455 1018.78 223.455 1005.99 99.7515M1005.99 99.7515C1000.93 50.8975 1000.93 -261.939 1000.93 -357C1000.93 -261.939 1000.93 50.8975 995.882 99.7515M1005.99 99.7515H995.882" stroke="#EB8EF3" stroke-width="2.1614"/>
</g>
<defs>
<clipPath id="clip0_135_3171">
<rect width="1004" height="1084" fill="white"/>
</clipPath>
</defs>
</svg>
