<svg width="31" height="23" viewBox="0 0 31 23" fill="none" xmlns="http://www.w3.org/2000/svg">
<path d="M29.2373 4.26897L24.8267 8.67953L21.8941 5.7469L26.3047 1.33634C27.7781 -0.13706 28.9965 -0.392072 29.9598 0.571305C30.9516 1.56302 30.7107 2.79557 29.2373 4.26897Z" fill="white"/>
<path d="M12.4352 21.0711L24.8458 8.66052L21.9131 5.72789L9.50257 18.1385C8.02917 19.6119 7.77415 20.8302 8.73753 21.7936C9.72924 22.7853 10.9618 22.5445 12.4352 21.0711Z" fill="white"/>
<path d="M1.32098 14.4566L8.73154 21.8671L11.6642 18.9345L4.25361 11.524C2.78021 10.0506 1.56182 9.79554 0.598446 10.7589C-0.393265 11.7506 -0.15242 12.9832 1.32098 14.4566Z" fill="white"/>
</svg>
